<?xml version="1.0" encoding="utf-8"?>
<!-- Generator: Adobe Illustrator 19.0.0, SVG Export Plug-In . SVG Version: 6.00 Build 0)  -->
<svg version="1.1" id="Calque_1" xmlns="http://www.w3.org/2000/svg" xmlns:xlink="http://www.w3.org/1999/xlink" x="0px" y="0px"
	 viewBox="0 0 122.3 17.8" enable-background="new 0 0 122.3 17.8" xml:space="preserve">
<g>
	<g>
		<path fill="#0B1625" d="M0,12.2c0.4-0.2,0.6-0.2,1-0.4c0.8,1.9,1.2,2.9,2,4.8c1-0.4,1.5-0.6,2.6-1c0.1,0.3,0.2,0.5,0.3,0.8
			c-1.4,0.5-2.1,0.8-3.5,1.4C1.4,15.6,0.9,14.4,0,12.2z"/>
		<path fill="#0B1625" d="M6.4,9.7C7.8,9.2,8.6,8.9,10,8.4c0.1,0.3,0.2,0.5,0.3,0.9c-1.1,0.4-1.6,0.6-2.7,0.9
			c0.2,0.6,0.3,0.8,0.5,1.4c0.9-0.3,1.3-0.5,2.1-0.8c0.1,0.3,0.2,0.5,0.3,0.9c-0.9,0.3-1.3,0.4-2.1,0.7c0.3,0.7,0.4,1.1,0.6,1.8
			c1.1-0.4,1.6-0.6,2.7-0.9c0.1,0.3,0.2,0.5,0.3,0.9c-1.5,0.5-2.2,0.7-3.6,1.3C7.6,13.1,7.2,12,6.4,9.7z"/>
		<path fill="#0B1625" d="M21,8.6c1,0.9,1.5,1.3,2.5,2.3c-0.5,0.1-0.7,0.2-1.1,0.3c-1-0.9-1.4-1.3-2.4-2.2C19.6,9,19.4,9,19.2,9.1
			c0.3,1.1,0.4,1.6,0.7,2.6c-0.4,0.1-0.6,0.2-1,0.3c-0.7-2.3-1-3.5-1.7-5.9c0.9-0.3,1.3-0.4,2.2-0.6c1.2-0.3,2,0.1,2.3,1.1
			C22,7.5,21.7,8.2,21,8.6z M20.1,7.9c0.5-0.1,0.8-0.5,0.6-1c-0.1-0.5-0.5-0.7-1-0.5c-0.5,0.1-0.7,0.2-1.2,0.3
			c0.2,0.6,0.3,0.9,0.4,1.5C19.4,8.1,19.7,8,20.1,7.9z"/>
		<path fill="#0B1625" d="M24.5,4.3c1.5-0.4,2.3-0.5,3.8-0.8c0.1,0.4,0.1,0.5,0.2,0.9c-1.1,0.2-1.7,0.4-2.8,0.6
			c0.1,0.6,0.2,0.9,0.3,1.5c0.9-0.2,1.3-0.3,2.2-0.5c0.1,0.4,0.1,0.5,0.2,0.9c-0.9,0.2-1.3,0.3-2.2,0.5c0.2,0.7,0.3,1.1,0.4,1.8
			c1.1-0.3,1.7-0.4,2.8-0.6c0.1,0.4,0.1,0.5,0.2,0.9c-1.5,0.3-2.2,0.5-3.7,0.8C25.4,7.8,25.1,6.6,24.5,4.3z M25.6,3.5
			c0.1-0.6,0.2-0.8,0.3-1.4c0.5-0.1,0.8-0.2,1.3-0.3c-0.4,0.6-0.5,0.9-0.9,1.5C26.1,3.4,25.9,3.4,25.6,3.5z"/>
		<path fill="#0B1625" d="M35.1,8.3c-0.4,0.1-0.6,0.1-1,0.2c-1.3-2.3-1.9-3.4-3.3-5.6c0.4-0.1,0.6-0.1,1.1-0.2
			c1,1.8,1.5,2.6,2.4,4.4c0.3-2,0.5-3,0.8-5C35.6,2.1,35.8,2,36.2,2C35.7,4.5,35.5,5.8,35.1,8.3z"/>
		<path fill="#0B1625" d="M38.8,1.6c1.5-0.2,2.3-0.3,3.8-0.5c0,0.4,0.1,0.5,0.1,0.9c-1.1,0.1-1.7,0.2-2.8,0.4
			C40,2.9,40,3.2,40.1,3.8c0.9-0.1,1.3-0.2,2.2-0.3c0,0.4,0.1,0.5,0.1,0.9c-0.9,0.1-1.3,0.2-2.2,0.3c0.1,0.7,0.2,1.1,0.3,1.9
			c1.1-0.2,1.7-0.2,2.8-0.4c0,0.4,0.1,0.5,0.1,0.9c-1.5,0.2-2.3,0.3-3.8,0.5C39.3,5.2,39.1,4,38.8,1.6z"/>
		<path fill="#0B1625" d="M46.3,6.8c-0.2-2.4-0.4-3.6-0.6-6.1c0.4,0,0.6-0.1,1-0.1c0.2,2.4,0.3,3.6,0.6,6.1
			C46.9,6.8,46.7,6.8,46.3,6.8z"/>
		<path fill="#0B1625" d="M49.9,0.4c0.4,0,0.6,0,1-0.1c0.1,2.1,0.2,3.1,0.3,5.2c1.1-0.1,1.6-0.1,2.7-0.1c0,0.4,0,0.5,0,0.9
			c-1.5,0.1-2.2,0.1-3.7,0.2C50.2,4.1,50.1,2.8,49.9,0.4z"/>
		<path fill="#0B1625" d="M60.9,0c0.8,0,1.1,0,1.9,0c0.8,0,1.5,0.3,2.1,0.8c0.6,0.5,0.8,1.3,0.8,2.3c0,1-0.3,1.7-0.9,2.2
			c-0.6,0.5-1.2,0.8-2,0.8c-0.7,0-1.1,0-1.8,0C60.9,3.7,60.9,2.4,60.9,0z M61.9,0.9c0,1.7,0,2.6,0,4.3c0.2,0,0.3,0,0.6,0
			c1.1,0,2.2-0.4,2.2-2.1c0-1.7-1-2.2-2.2-2.2C62.2,0.9,62.1,0.9,61.9,0.9z"/>
		<path fill="#0B1625" d="M68.7,0.2c1.5,0.1,2.3,0.1,3.8,0.2c0,0.4,0,0.5-0.1,0.9c-1.1-0.1-1.7-0.1-2.8-0.2c0,0.6,0,0.9-0.1,1.5
			c0.9,0,1.3,0.1,2.2,0.1c0,0.4,0,0.5-0.1,0.9c-0.9-0.1-1.3-0.1-2.2-0.1c0,0.8-0.1,1.1-0.1,1.9c1.1,0.1,1.7,0.1,2.8,0.2
			c0,0.4,0,0.5-0.1,0.9c-1.5-0.1-2.3-0.2-3.8-0.2C68.5,3.8,68.6,2.6,68.7,0.2z"/>
		<path fill="#0B1625" d="M80,1.1c0.4,0,0.6,0.1,1,0.1c-0.3,2.1-0.4,3.1-0.6,5.2c1.1,0.1,1.6,0.2,2.7,0.4C83,7.1,83,7.3,82.9,7.6
			c-1.5-0.2-2.2-0.3-3.6-0.5C79.6,4.7,79.7,3.5,80,1.1z"/>
		<path fill="#0B1625" d="M88.5,2.3c0.4,0.1,0.6,0.1,1,0.2c0.5,2.6,0.7,3.8,1.1,6.4c-0.4-0.1-0.6-0.1-1-0.2c-0.1-0.6-0.1-1-0.2-1.6
			C88.4,7,88,6.9,87.1,6.8c-0.3,0.6-0.5,0.8-0.8,1.4c-0.4-0.1-0.6-0.1-1-0.2C86.6,5.7,87.2,4.6,88.5,2.3z M88.8,3.6
			C88.3,4.5,88,5,87.5,5.9c0.7,0.1,1,0.2,1.6,0.3C89,5.2,89,4.7,88.8,3.6z"/>
		<path fill="#0B1625" d="M98.6,4.4c1.5,0.4,2.3,0.6,3.8,1c-0.1,0.4-0.1,0.5-0.2,0.9c-1.1-0.3-1.7-0.4-2.8-0.7
			c-0.2,0.6-0.2,0.9-0.4,1.5c0.9,0.2,1.4,0.3,2.2,0.6c-0.1,0.4-0.1,0.5-0.2,0.9c-0.9-0.2-1.3-0.3-2.2-0.6c-0.3,1.1-0.4,1.6-0.7,2.6
			c-0.4-0.1-0.6-0.1-1-0.2C97.8,8,98,6.8,98.6,4.4z"/>
		<path fill="#0B1625" d="M105.3,6.2c1.5,0.4,2.2,0.6,3.7,1.1c-0.1,0.3-0.2,0.5-0.3,0.9c-1.1-0.3-1.6-0.5-2.7-0.8
			c-0.2,0.6-0.3,0.9-0.4,1.4c0.9,0.3,1.3,0.4,2.2,0.7c-0.1,0.3-0.2,0.5-0.3,0.9c-0.9-0.3-1.3-0.4-2.2-0.6c-0.2,0.7-0.3,1.1-0.5,1.8
			c1.1,0.3,1.6,0.5,2.7,0.8c-0.1,0.3-0.2,0.5-0.3,0.9c-1.5-0.5-2.2-0.7-3.7-1.1C104.3,9.7,104.6,8.5,105.3,6.2z M105.7,5.7
			c0.8-0.4,1.1-0.6,1.9-1c0.1,0,0.2,0,0.3,0.1c0.4,0.8,0.6,1.1,1,1.9c-0.4-0.1-0.5-0.2-0.9-0.3c-0.2-0.4-0.3-0.5-0.5-0.9
			c-0.4,0.2-0.5,0.3-0.9,0.5C106.3,5.9,106.1,5.9,105.7,5.7z"/>
		<path fill="#0B1625" d="M111.4,9c0.1-0.3,0.2-0.5,0.3-0.9c1.8,0.6,2.7,0.9,4.4,1.6c-0.1,0.3-0.2,0.5-0.3,0.9
			c-0.7-0.3-1-0.4-1.7-0.6c-0.7,2-1,2.9-1.7,4.9c-0.4-0.1-0.6-0.2-0.9-0.3c0.7-2,1-2.9,1.7-4.9C112.4,9.4,112.1,9.3,111.4,9z"/>
		<path fill="#0B1625" d="M118.7,10.7c1.5,0.6,2.2,0.9,3.6,1.4c-0.1,0.3-0.2,0.5-0.3,0.8c-1.1-0.4-1.6-0.7-2.7-1.1
			c-0.2,0.6-0.3,0.8-0.5,1.4c0.8,0.3,1.3,0.5,2.1,0.8c-0.1,0.3-0.2,0.5-0.3,0.8c-0.8-0.3-1.3-0.5-2.1-0.8c-0.3,0.7-0.4,1.1-0.7,1.8
			c1.1,0.4,1.6,0.6,2.7,1.1c-0.1,0.3-0.2,0.5-0.3,0.8c-1.4-0.6-2.1-0.9-3.6-1.4C117.4,14.1,117.8,13,118.7,10.7z"/>
	</g>
</g>
</svg>
